<svg xmlns="http://www.w3.org/2000/svg" width="32" height="32"><g fill="none" fill-rule="evenodd"><circle cx="16.017" cy="16.017" r="14.98" stroke="#0E8420" stroke-linecap="round" stroke-linejoin="round" stroke-width="1.508"/><path fill="#0E8420" fill-rule="nonzero" d="M10.739 19.667a.811.811 0 0 0 .072.797c1.271 1.84 3.377 3.043 5.742 3.043s4.471-1.203 5.743-3.043a.814.814 0 0 0 .076-.775.737.737 0 0 0-.598-.455.718.718 0 0 0-.672.321 5.519 5.519 0 0 1-4.549 2.4 5.518 5.518 0 0 1-4.548-2.4.722.722 0 0 0-.632-.328.737.737 0 0 0-.634.44z"/><circle cx="12.272" cy="12.272" r="1.605" fill="#0E8420" fill-rule="nonzero"/><circle cx="20.832" cy="12.272" r="1.605" fill="#0E8420" fill-rule="nonzero"/></g></svg>